{
  "asset": {
    "version": "2.0",
    "generator": "THREE.GLTFExporter"
  },
  "scenes": [
    {
      "nodes": [
        0
      ]
    }
  ],
  "scene": 0,
  "nodes": [
    {
      "children": [
        5
      ],
      "matrix": [
        0.01,
        0,
        0,
        0,
        0,
        0.01,
        0,
        0,
        0,
        0,
        0.01,
        0,
        0,
        0,
        0,
        1
      ]
    },
    {
      "matrix": [
        5.7,
        0,
        0,
        0,
        0,
        5.699999999999924,
        9.286479041747912e-7,
        0,
        0,
        -9.286479041747912e-7,
        5.699999999999924,
        0,
        -0.14168444275856018,
        0.05992449074983597,
        2.6193300861621083e-9,
        1
      ],
      "name": "Circle001x",
      "mesh": 0
    },
    {
      "name": "Logo_v2",
      "children": [
        1
      ]
    },
    {
      "matrix": [
        0.9980778013545569,
        4.336808689942018e-19,
        -0.061973401094773714,
        0,
        -0.005420555008541193,
        0.9961675202788921,
        -0.08729770400647685,
        0,
        0.06173588929182991,
        0.08746583070778591,
        0.9942526884207776,
        0,
        193.46673575485508,
        123.001351781175,
        1082.339656608638,
        1
      ],
      "name": "Personal Camera",
      "camera": 0
    },
    {
      "matrix": [
        1,
        0,
        0,
        0,
        0,
        1,
        0,
        0,
        0,
        0,
        1,
        0,
        0,
        1,
        0,
        1
      ],
      "name": "Default Ambient Light"
    },
    {
      "name": "Scene 1",
      "children": [
        2,
        3,
        4
      ]
    }
  ],
  "bufferViews": [
    {
      "buffer": 0,
      "byteOffset": 0,
      "byteLength": 121968,
      "target": 34962,
      "byteStride": 12
    },
    {
      "buffer": 0,
      "byteOffset": 121968,
      "byteLength": 121968,
      "target": 34962,
      "byteStride": 12
    }
  ],
  "buffers": [
    {
      "byteLength": 243936,
      "uri": "data:application/octet-stream;base64,"
    }
  ],
  "accessors": [
    {
      "bufferView": 0,
      "componentType": 5126,
      "count": 10164,
      "max": [
        59.79999923706055,
        59.79999923706055,
        4.5
      ],
      "min": [
        -59.79999923706055,
        -59.79999923706055,
        -4.5
      ],
      "type": "VEC3"
    },
    {
      "bufferView": 1,
      "componentType": 5126,
      "count": 10164,
      "max": [
        1,
        1,
        1
      ],
      "min": [
        -1,
        -1,
        -1
      ],
      "type": "VEC3"
    }
  ],
  "meshes": [
    {
      "primitives": [
        {
          "mode": 4,
          "attributes": {
            "POSITION": 0,
            "NORMAL": 1
          },
          "extras": {
            "parameters": {
              "width": 119.5999984741211,
              "height": 119.5999984741211,
              "depth": 9,
              "subdivisions": 0
            },
            "type": "NonParametricGeometry"
          }
        }
      ]
    }
  ],
  "cameras": [
    {
      "type": "orthographic",
      "orthographic": {
        "xmag": 15.497318007662836,
        "ymag": 7.9,
        "zfar": 100000,
        "znear": 0
      },
      "name": "Camera"
    }
  ]
}