<svg width="11" height="16" viewBox="0 0 11 16" fill="none" xmlns="http://www.w3.org/2000/svg">
<path d="M10.8632 8.26714C10.9056 8.23664 10.94 8.19651 10.9638 8.15006C10.9876 8.10362 11 8.05218 11 8C11 7.94782 10.9876 7.89639 10.9638 7.84995C10.94 7.8035 10.9056 7.76337 10.8632 7.73287L0.674797 0.360753C0.45529 0.203371 0.148808 0.360754 0.148808 0.62996V2.57239C0.148808 2.99484 0.351749 3.39658 0.695505 3.64507L6.71745 7.99793L0.695505 12.3549C0.351749 12.6034 0.148808 13.001 0.148808 13.4276V15.37C0.148808 15.6393 0.45529 15.7966 0.674797 15.6393L10.8632 8.26714Z" fill="#A9A7A7"/>
</svg>
