<svg width="28" height="28" viewBox="0 0 28 28" fill="none" xmlns="http://www.w3.org/2000/svg">
<path d="M9.33334 2.33331V5.83331" stroke="#C07BFF" stroke-width="1.75" stroke-miterlimit="10" stroke-linecap="round" stroke-linejoin="round"/>
<path d="M18.6667 2.33331V5.83331" stroke="#C07BFF" stroke-width="1.75" stroke-miterlimit="10" stroke-linecap="round" stroke-linejoin="round"/>
<path d="M24.5 9.91665V15.9017C23.4617 15.0733 22.1433 14.5833 20.7083 14.5833C19.2733 14.5833 17.9317 15.0849 16.8817 15.9366C15.47 17.0449 14.5833 18.7833 14.5833 20.7083C14.5833 21.8516 14.91 22.9483 15.47 23.8583C15.9017 24.57 16.4617 25.1883 17.1267 25.6666H9.33333C5.25 25.6666 3.5 23.3333 3.5 19.8333V9.91665C3.5 6.41665 5.25 4.08331 9.33333 4.08331H18.6667C22.75 4.08331 24.5 6.41665 24.5 9.91665Z" stroke="#C07BFF" stroke-width="1.75" stroke-miterlimit="10" stroke-linecap="round" stroke-linejoin="round"/>
<path d="M8.16666 12.8333H15.1667" stroke="#C07BFF" stroke-width="1.75" stroke-miterlimit="10" stroke-linecap="round" stroke-linejoin="round"/>
<path d="M8.16666 18.6667H11.2233" stroke="#C07BFF" stroke-width="1.75" stroke-miterlimit="10" stroke-linecap="round" stroke-linejoin="round"/>
<path d="M26.8333 20.7083C26.8333 21.8516 26.5067 22.9483 25.9467 23.8583C25.62 24.4183 25.2117 24.9083 24.7334 25.305C23.66 26.2616 22.26 26.8333 20.7083 26.8333C19.3667 26.8333 18.13 26.4016 17.1267 25.6666C16.4617 25.1883 15.9017 24.57 15.47 23.8583C14.91 22.9483 14.5833 21.8516 14.5833 20.7083C14.5833 18.7833 15.47 17.0449 16.8817 15.9366C17.9317 15.0849 19.2733 14.5833 20.7083 14.5833C22.1433 14.5833 23.4617 15.0733 24.5 15.9017C25.9233 17.0217 26.8333 18.76 26.8333 20.7083Z" stroke="#C07BFF" stroke-width="1.75" stroke-miterlimit="10" stroke-linecap="round" stroke-linejoin="round"/>
<path d="M20.7083 23.625C20.7083 22.015 22.015 20.7084 23.625 20.7084C22.015 20.7084 20.7083 19.4017 20.7083 17.7917C20.7083 19.4017 19.4017 20.7084 17.7917 20.7084C19.4017 20.7084 20.7083 22.015 20.7083 23.625Z" stroke="#C07BFF" stroke-width="1.75" stroke-linecap="round" stroke-linejoin="round"/>
</svg>
