<svg width="295" height="279" viewBox="0 0 295 279" fill="none" xmlns="http://www.w3.org/2000/svg">
<g filter="url(#filter0_i_552_2078)">
<path d="M253 77C253 72.5817 249.418 69 245 69H61C56.5817 69 53 72.5817 53 77V169C53 173.418 56.5817 177 61 177H123.936C125.131 177 126.264 177.535 127.024 178.457L146.825 202.501C150.025 206.387 155.975 206.387 159.175 202.501L178.976 178.457C179.736 177.535 180.869 177 182.064 177H245C249.418 177 253 173.418 253 169V77Z" fill="#373743"/>
</g>
<path d="M259 77C259 69.268 252.732 63 245 63H61C53.268 63 47 69.268 47 77V169C47 176.732 53.268 183 61 183H122.992L142.193 206.315C147.793 213.116 158.207 213.116 163.807 206.315L183.008 183H245C252.732 183 259 176.732 259 169V77Z" stroke="#4D4D5F" stroke-width="12"/>
<g opacity="0.6" filter="url(#filter1_f_552_2078)">
<path d="M254 77C254 72.0294 249.971 68 245 68H61C56.0294 68 52 72.0294 52 77V169C52 173.971 56.0294 178 61 178H123.936C124.832 178 125.682 178.401 126.252 179.093L146.053 203.137C149.653 207.508 156.347 207.508 159.947 203.137L179.748 179.093C180.318 178.401 181.168 178 182.064 178H245C249.971 178 254 173.971 254 169V77Z" stroke="url(#paint0_linear_552_2078)" stroke-width="2"/>
</g>
<g filter="url(#filter2_di_552_2078)">
<path d="M234.753 75.7733L208.979 50L143.729 121.982L110.407 85.2939L88 107.701L143.729 156.698L234.753 75.7733Z" fill="url(#paint1_linear_552_2078)"/>
</g>
<path d="M284 24C285.886 29.0962 289.904 33.1142 295 35C289.904 36.8858 285.886 40.9038 284 46C282.114 40.9038 278.096 36.8858 273 35C278.096 33.1142 282.114 29.0962 284 24Z" fill="#B950F1"/>
<path d="M235 188C236.886 193.096 240.904 197.114 246 199C240.904 200.886 236.886 204.904 235 210C233.114 204.904 229.096 200.886 224 199C229.096 197.114 233.114 193.096 235 188Z" fill="#D29CFF"/>
<path d="M96 0C97.2 3.24304 99.757 5.79997 103 7C99.757 8.20003 97.2 10.757 96 14C94.8 10.757 92.243 8.20003 89 7C92.243 5.79997 94.8 3.24304 96 0Z" fill="#D29CFF"/>
<path d="M11 55C12.8858 60.0962 16.9038 64.1142 22 66C16.9038 67.8858 12.8858 71.9038 11 77C9.11424 71.9038 5.0962 67.8858 0 66C5.0962 64.1142 9.11424 60.0962 11 55Z" fill="#B950F1"/>
<path d="M68 251C70.4001 257.486 75.5139 262.6 82 265C75.5139 267.4 70.4001 272.514 68 279C65.5999 272.514 60.4861 267.4 54 265C60.4861 262.6 65.5999 257.486 68 251Z" fill="#B950F1"/>
<defs>
<filter id="filter0_i_552_2078" x="41" y="57" width="242" height="178.416" filterUnits="userSpaceOnUse" color-interpolation-filters="sRGB">
<feFlood flood-opacity="0" result="BackgroundImageFix"/>
<feBlend mode="normal" in="SourceGraphic" in2="BackgroundImageFix" result="shape"/>
<feColorMatrix in="SourceAlpha" type="matrix" values="0 0 0 0 0 0 0 0 0 0 0 0 0 0 0 0 0 0 127 0" result="hardAlpha"/>
<feOffset dx="30" dy="27"/>
<feGaussianBlur stdDeviation="9"/>
<feComposite in2="hardAlpha" operator="arithmetic" k2="-1" k3="1"/>
<feColorMatrix type="matrix" values="0 0 0 0 0 0 0 0 0 0 0 0 0 0 0 0 0 0 0.6 0"/>
<feBlend mode="normal" in2="shape" result="effect1_innerShadow_552_2078"/>
</filter>
<filter id="filter1_f_552_2078" x="50.5" y="66.5" width="205" height="141.416" filterUnits="userSpaceOnUse" color-interpolation-filters="sRGB">
<feFlood flood-opacity="0" result="BackgroundImageFix"/>
<feBlend mode="normal" in="SourceGraphic" in2="BackgroundImageFix" result="shape"/>
<feGaussianBlur stdDeviation="0.25" result="effect1_foregroundBlur_552_2078"/>
</filter>
<filter id="filter2_di_552_2078" x="80.3" y="47.3" width="182.153" height="142.098" filterUnits="userSpaceOnUse" color-interpolation-filters="sRGB">
<feFlood flood-opacity="0" result="BackgroundImageFix"/>
<feColorMatrix in="SourceAlpha" type="matrix" values="0 0 0 0 0 0 0 0 0 0 0 0 0 0 0 0 0 0 127 0" result="hardAlpha"/>
<feOffset dx="10" dy="15"/>
<feGaussianBlur stdDeviation="8.85"/>
<feComposite in2="hardAlpha" operator="out"/>
<feColorMatrix type="matrix" values="0 0 0 0 0 0 0 0 0 0 0 0 0 0 0 0 0 0 0.25 0"/>
<feBlend mode="normal" in2="BackgroundImageFix" result="effect1_dropShadow_552_2078"/>
<feBlend mode="normal" in="SourceGraphic" in2="effect1_dropShadow_552_2078" result="shape"/>
<feColorMatrix in="SourceAlpha" type="matrix" values="0 0 0 0 0 0 0 0 0 0 0 0 0 0 0 0 0 0 127 0" result="hardAlpha"/>
<feOffset dx="2" dy="2"/>
<feGaussianBlur stdDeviation="1"/>
<feComposite in2="hardAlpha" operator="arithmetic" k2="-1" k3="1"/>
<feColorMatrix type="matrix" values="0 0 0 0 1 0 0 0 0 1 0 0 0 0 1 0 0 0 0.6 0"/>
<feBlend mode="normal" in2="shape" result="effect2_innerShadow_552_2078"/>
</filter>
<linearGradient id="paint0_linear_552_2078" x1="56.5" y1="75.5" x2="237.5" y2="171.5" gradientUnits="userSpaceOnUse">
<stop stop-color="#020804" stop-opacity="0"/>
<stop offset="1"/>
</linearGradient>
<linearGradient id="paint1_linear_552_2078" x1="228.697" y1="61.4426" x2="87.3235" y2="113.616" gradientUnits="userSpaceOnUse">
<stop stop-color="#BD41E3"/>
<stop offset="1" stop-color="#B45FFF"/>
</linearGradient>
</defs>
</svg>
