<svg width="28" height="28" viewBox="0 0 28 28" fill="none" xmlns="http://www.w3.org/2000/svg">
<g clip-path="url(#clip0_562_2083)">
<path d="M14 28C21.732 28 28 21.732 28 14C28 6.26801 21.732 0 14 0C6.26801 0 0 6.26801 0 14C0 21.732 6.26801 28 14 28Z" fill="url(#paint0_linear_562_2083)"/>
<path d="M4.19849 9.2829H6.23013V12.8275H6.76506L9.87737 9.2829H12.3521L8.54276 13.6002L12.4169 18.2362H9.83955L6.72724 14.4269H6.23013V18.2362H4.19849V9.2829Z" fill="white"/>
<path d="M12.8655 9.2829H16.891L18.0959 17.7175H18.6038L19.8088 9.2829H23.7964V18.2362H21.7648V12.1899L22.1322 9.80162H21.6351L20.3005 18.2362H16.3507L15.016 9.80162H14.4973L14.8918 12.1899V18.2362H12.8601V9.2829H12.8655Z" fill="white"/>
</g>
<defs>
<linearGradient id="paint0_linear_562_2083" x1="0" y1="14" x2="28" y2="14" gradientUnits="userSpaceOnUse">
<stop stop-color="#000FEF"/>
<stop offset="0.9" stop-color="#FF00F6"/>
</linearGradient>
<clipPath id="clip0_562_2083">
<rect width="28" height="28" fill="white"/>
</clipPath>
</defs>
</svg>
