<svg width="28" height="28" viewBox="0 0 28 28" fill="none" xmlns="http://www.w3.org/2000/svg">
<path d="M21 2.33334H7C5.06333 2.33334 3.5 3.88501 3.5 5.79834V18.5267C3.5 20.44 5.06333 21.9917 7 21.9917H7.88667C8.82 21.9917 9.70667 22.3533 10.36 23.0067L12.355 24.9783C13.265 25.8767 14.7467 25.8767 15.6567 24.9783L17.6517 23.0067C18.305 22.3533 19.2033 21.9917 20.125 21.9917H21C22.9367 21.9917 24.5 20.44 24.5 18.5267V5.79834C24.5 3.88501 22.9367 2.33334 21 2.33334Z" fill="#C07BFF"/>
<path d="M13.8787 9.65161H17.5542L17.102 15.7903L19.036 9.65161H22.75L21.4222 16.435H19.469L20.2387 12.5478L20.6524 10.3925L18.6126 16.435H15.3605L15.678 10.4117L15.2642 12.5478L14.5041 16.435H12.5509L13.8787 9.65161Z" fill="#1C1E23"/>
<path d="M6.57781 9.65164H8.53103L8.01145 12.2399L10.8306 9.65164H13.2746L9.5798 12.9904L12.0141 16.435H9.77224L7.77091 13.587L7.20322 16.435H5.25L6.57781 9.65164Z" fill="#1C1E23"/>
</svg>
