<svg width="39" height="39" viewBox="0 0 39 39" fill="none" xmlns="http://www.w3.org/2000/svg">
<g opacity="0.4">
<path d="M11.8074 11.5714H3.26532V13.4032H11.8074V11.5714Z" fill="#83807F"/>
<path d="M26.756 15.0849H5.82538V16.9167H7.84987V28.871H28.5878V15.0849H26.756ZM26.756 27.0392H9.6817V16.9167H26.7527V27.0392H26.756Z" fill="#83807F"/>
<path d="M13.6911 34.3782C14.7003 34.3064 15.4601 33.4302 15.3883 32.421C15.3165 31.4119 14.4402 30.652 13.4311 30.7238C12.422 30.7956 11.6621 31.6719 11.7339 32.681C11.8057 33.6902 12.682 34.45 13.6911 34.3782Z" fill="#83807F"/>
<path d="M23.4678 34.3829C24.4795 34.3829 25.2997 33.5627 25.2997 32.551C25.2997 31.5393 24.4795 30.7192 23.4678 30.7192C22.4561 30.7192 21.636 31.5393 21.636 32.551C21.636 33.5627 22.4561 34.3829 23.4678 34.3829Z" fill="#83807F"/>
</g>
<g filter="url(#filter0_d_666_2783)">
<mask id="path-5-outside-1_666_2783" maskUnits="userSpaceOnUse" x="20.5" y="5" width="13" height="17" fill="black">
<rect fill="white" x="20.5" y="5" width="13" height="17"/>
<path fill-rule="evenodd" clip-rule="evenodd" d="M23.5 9.5C23.5 7.567 25.067 6 27 6C28.933 6 30.5 7.567 30.5 9.5V11H31.5C32.0523 11 32.5 11.4477 32.5 12V20C32.5 20.5523 32.0523 21 31.5 21H22.5C21.9477 21 21.5 20.5523 21.5 20V12C21.5 11.4477 21.9477 11 22.5 11H23.5V9.5ZM29 11H25V9.5C25 8.39543 25.8954 7.5 27 7.5C28.1046 7.5 29 8.39543 29 9.5V11Z"/>
</mask>
<path fill-rule="evenodd" clip-rule="evenodd" d="M23.5 9.5C23.5 7.567 25.067 6 27 6C28.933 6 30.5 7.567 30.5 9.5V11H31.5C32.0523 11 32.5 11.4477 32.5 12V20C32.5 20.5523 32.0523 21 31.5 21H22.5C21.9477 21 21.5 20.5523 21.5 20V12C21.5 11.4477 21.9477 11 22.5 11H23.5V9.5ZM29 11H25V9.5C25 8.39543 25.8954 7.5 27 7.5C28.1046 7.5 29 8.39543 29 9.5V11Z" fill="white"/>
<path d="M30.5 11H30V11.5H30.5V11ZM23.5 11V11.5H24V11H23.5ZM25 11H24.5V11.5H25V11ZM29 11V11.5H29.5V11H29ZM27 5.5C24.7909 5.5 23 7.29086 23 9.5H24C24 7.84315 25.3431 6.5 27 6.5V5.5ZM31 9.5C31 7.29086 29.2091 5.5 27 5.5V6.5C28.6569 6.5 30 7.84315 30 9.5H31ZM31 11V9.5H30V11H31ZM30.5 11.5H31.5V10.5H30.5V11.5ZM31.5 11.5C31.7761 11.5 32 11.7239 32 12H33C33 11.1716 32.3284 10.5 31.5 10.5V11.5ZM32 12V20H33V12H32ZM32 20C32 20.2761 31.7761 20.5 31.5 20.5V21.5C32.3284 21.5 33 20.8284 33 20H32ZM31.5 20.5H22.5V21.5H31.5V20.5ZM22.5 20.5C22.2239 20.5 22 20.2761 22 20H21C21 20.8284 21.6716 21.5 22.5 21.5V20.5ZM22 20V12H21V20H22ZM22 12C22 11.7239 22.2239 11.5 22.5 11.5V10.5C21.6716 10.5 21 11.1716 21 12H22ZM22.5 11.5H23.5V10.5H22.5V11.5ZM23 9.5V11H24V9.5H23ZM25 11.5H29V10.5H25V11.5ZM24.5 9.5V11H25.5V9.5H24.5ZM27 7C25.6193 7 24.5 8.11929 24.5 9.5H25.5C25.5 8.67157 26.1716 8 27 8V7ZM29.5 9.5C29.5 8.11929 28.3807 7 27 7V8C27.8284 8 28.5 8.67157 28.5 9.5H29.5ZM29.5 11V9.5H28.5V11H29.5Z" fill="black" mask="url(#path-5-outside-1_666_2783)"/>
<path fill-rule="evenodd" clip-rule="evenodd" d="M27 21H31.5C32.0523 21 32.5 20.5523 32.5 20V12C32.5 11.4477 32.0523 11 31.5 11H30.5V9.5C30.5 7.567 28.933 6 27 6V7.5C28.1046 7.5 29 8.39543 29 9.5V11H27V21Z" fill="#D9D9D9"/>
<path fill-rule="evenodd" clip-rule="evenodd" d="M27 13C26.1716 13 25.5 13.6716 25.5 14.5C25.5 14.9442 25.6931 15.3434 26 15.6181V18.5C26 19.0523 26.4477 19.5 27 19.5C27.5523 19.5 28 19.0523 28 18.5V15.6181C28.3069 15.3434 28.5 14.9442 28.5 14.5C28.5 13.6716 27.8284 13 27 13Z" fill="#B8B8B8"/>
</g>
<defs>
<filter id="filter0_d_666_2783" x="15" y="0.5" width="24" height="28" filterUnits="userSpaceOnUse" color-interpolation-filters="sRGB">
<feFlood flood-opacity="0" result="BackgroundImageFix"/>
<feColorMatrix in="SourceAlpha" type="matrix" values="0 0 0 0 0 0 0 0 0 0 0 0 0 0 0 0 0 0 127 0" result="hardAlpha"/>
<feMorphology radius="6" operator="dilate" in="SourceAlpha" result="effect1_dropShadow_666_2783"/>
<feOffset dy="1"/>
<feComposite in2="hardAlpha" operator="out"/>
<feColorMatrix type="matrix" values="0 0 0 0 0 0 0 0 0 0 0 0 0 0 0 0 0 0 1 0"/>
<feBlend mode="normal" in2="BackgroundImageFix" result="effect1_dropShadow_666_2783"/>
<feBlend mode="normal" in="SourceGraphic" in2="effect1_dropShadow_666_2783" result="shape"/>
</filter>
</defs>
</svg>
