<svg width="33" height="32" viewBox="0 0 33 32" fill="none" xmlns="http://www.w3.org/2000/svg">
<path fill-rule="evenodd" clip-rule="evenodd" d="M20.5 2.66666C20.9681 2.66667 21.4279 2.78989 21.8333 3.02394C22.2386 3.25799 22.5753 3.59462 22.8093 3.99999H24.5C25.2072 3.99999 25.8855 4.28094 26.3856 4.78104C26.8857 5.28114 27.1666 5.95941 27.1666 6.66666V22.6667C27.1666 24.4348 26.4643 26.1305 25.214 27.3807C23.9638 28.6309 22.2681 29.3333 20.5 29.3333H8.49998C7.79274 29.3333 7.11446 29.0524 6.61436 28.5523C6.11426 28.0522 5.83331 27.3739 5.83331 26.6667V6.66666C5.83331 5.95941 6.11426 5.28114 6.61436 4.78104C7.11446 4.28094 7.79274 3.99999 8.49998 3.99999H10.1906C10.4247 3.59462 10.7613 3.25799 11.1667 3.02394C11.5721 2.78989 12.0319 2.66667 12.5 2.66666H20.5ZM20.2653 12.5053L14.6093 18.1627L12.7226 16.276C12.4712 16.0331 12.1344 15.8987 11.7848 15.9018C11.4352 15.9048 11.1008 16.045 10.8536 16.2922C10.6063 16.5394 10.4661 16.8739 10.4631 17.2235C10.46 17.573 10.5944 17.9099 10.8373 18.1613L13.5706 20.896C13.7068 21.0323 13.8686 21.1404 14.0466 21.2141C14.2245 21.2878 14.4153 21.3258 14.608 21.3258C14.8006 21.3258 14.9914 21.2878 15.1694 21.2141C15.3474 21.1404 15.5091 21.0323 15.6453 20.896L22.152 14.3907C22.2758 14.2668 22.374 14.1197 22.4409 13.9579C22.5079 13.7961 22.5423 13.6226 22.5422 13.4475C22.5422 13.2724 22.5076 13.099 22.4406 12.9372C22.3735 12.7754 22.2752 12.6284 22.1513 12.5047C22.0274 12.3809 21.8804 12.2827 21.7186 12.2157C21.5567 12.1488 21.3833 12.1143 21.2082 12.1144C21.033 12.1144 20.8596 12.149 20.6979 12.2161C20.5361 12.2832 20.3891 12.3814 20.2653 12.5053ZM19.8333 5.33332H13.1666C13.0106 5.33327 12.8595 5.38795 12.7396 5.48784C12.6198 5.58773 12.5387 5.7265 12.5106 5.87999L12.5 5.99999V7.33332C12.4999 7.48936 12.5546 7.64047 12.6545 7.76033C12.7544 7.8802 12.8932 7.96124 13.0466 7.98932L13.1666 7.99999H19.8333C19.9893 8.00004 20.1405 7.94536 20.2603 7.84547C20.3802 7.74558 20.4612 7.60681 20.4893 7.45332L20.5 7.33332V5.99999C20.5 5.84396 20.4454 5.69285 20.3455 5.57298C20.2456 5.45311 20.1068 5.37208 19.9533 5.34399L19.8333 5.33332Z" fill="#A9A7A7"/>
</svg>
