<svg width="28" height="28" viewBox="0 0 28 28" fill="none" xmlns="http://www.w3.org/2000/svg">
<path d="M24.85 12.6467C25.305 12.6467 25.6666 12.285 25.6666 11.83V10.745C25.6666 5.96166 24.2083 4.50333 19.425 4.50333H8.57496C3.79163 4.50333 2.3333 5.96166 2.3333 10.745V11.2933C2.3333 11.7483 2.69496 12.11 3.14996 12.11C4.19996 12.11 5.05163 12.9617 5.05163 14.0117C5.05163 15.0617 4.19996 15.9017 3.14996 15.9017C2.69496 15.9017 2.3333 16.2633 2.3333 16.7183V17.2667C2.3333 22.05 3.79163 23.5083 8.57496 23.5083H19.425C24.2083 23.5083 25.6666 22.05 25.6666 17.2667C25.6666 16.8117 25.305 16.45 24.85 16.45C23.8 16.45 22.9483 15.5983 22.9483 14.5483C22.9483 13.4983 23.8 12.6467 24.85 12.6467ZM10.5 10.36C11.1416 10.36 11.6666 10.885 11.6666 11.5267C11.6666 12.1683 11.1533 12.6933 10.5 12.6933C9.8583 12.6933 9.3333 12.1683 9.3333 11.5267C9.3333 10.885 9.84663 10.36 10.5 10.36ZM17.5 18.5267C16.8466 18.5267 16.3216 18.0017 16.3216 17.36C16.3216 16.7183 16.8466 16.1933 17.4883 16.1933C18.13 16.1933 18.655 16.7183 18.655 17.36C18.655 18.0017 18.1533 18.5267 17.5 18.5267ZM18.55 11.06L10.6983 18.9117C10.5233 19.0867 10.3016 19.1683 10.08 19.1683C9.8583 19.1683 9.63663 19.0867 9.46163 18.9117C9.1233 18.5733 9.1233 18.0133 9.46163 17.675L17.3133 9.82333C17.6516 9.48499 18.2116 9.48499 18.55 9.82333C18.8883 10.1617 18.8883 10.7217 18.55 11.06Z" fill="#C07BFF"/>
</svg>
