<svg width="43" height="47" viewBox="0 0 43 47" fill="none" xmlns="http://www.w3.org/2000/svg">
<g filter="url(#filter0_d_392_1253)">
<mask id="path-1-outside-1_392_1253" maskUnits="userSpaceOnUse" x="5.63373" y="-0.366025" width="36.7846" height="39.7128" fill="black">
<rect fill="white" x="5.63373" y="-0.366025" width="36.7846" height="39.7128"/>
<path fill-rule="evenodd" clip-rule="evenodd" d="M21.963 9.06168C23.896 5.71363 28.1771 4.5665 31.5252 6.4995C34.1999 8.04377 35.47 11.0867 34.887 13.9553L31.9784 13.1759C32.2242 11.5915 31.4967 9.94747 30.0247 9.09764C28.1116 7.99308 25.6652 8.64858 24.5606 10.5617L23.0611 13.159L34.3206 19.6597C35.2772 20.2119 35.6049 21.4351 35.0527 22.3917L27.0527 36.2481C26.5004 37.2047 25.2772 37.5324 24.3206 36.9802L8.73215 27.9802C7.77557 27.4279 7.44782 26.2047 8.0001 25.2481L16.0001 11.3917C16.5524 10.4351 17.7756 10.1074 18.7322 10.6597L20.4633 11.6592L21.963 9.06168Z"/>
</mask>
<path fill-rule="evenodd" clip-rule="evenodd" d="M21.963 9.06168C23.896 5.71363 28.1771 4.5665 31.5252 6.4995C34.1999 8.04377 35.47 11.0867 34.887 13.9553L31.9784 13.1759C32.2242 11.5915 31.4967 9.94747 30.0247 9.09764C28.1116 7.99308 25.6652 8.64858 24.5606 10.5617L23.0611 13.159L34.3206 19.6597C35.2772 20.2119 35.6049 21.4351 35.0527 22.3917L27.0527 36.2481C26.5004 37.2047 25.2772 37.5324 24.3206 36.9802L8.73215 27.9802C7.77557 27.4279 7.44782 26.2047 8.0001 25.2481L16.0001 11.3917C16.5524 10.4351 17.7756 10.1074 18.7322 10.6597L20.4633 11.6592L21.963 9.06168Z" fill="white"/>
<path d="M21.963 9.06168L22.829 9.56168L21.963 9.06168ZM34.887 13.9553L34.6282 14.9212L35.6552 15.1964L35.8669 14.1545L34.887 13.9553ZM31.9784 13.1759L30.9902 13.0227L30.8526 13.9096L31.7196 14.1419L31.9784 13.1759ZM24.5606 10.5617L23.6946 10.0617L24.5606 10.5617ZM23.0611 13.159L22.1951 12.659L21.6951 13.525L22.5611 14.025L23.0611 13.159ZM35.0527 22.3917L34.1866 21.8917L35.0527 22.3917ZM27.0527 36.2481L27.9187 36.7481L27.0527 36.2481ZM24.3206 36.9802L24.8206 36.1141L24.3206 36.9802ZM8.73215 27.9802L8.23215 28.8462L8.73215 27.9802ZM8.0001 25.2481L8.86613 25.7481L8.0001 25.2481ZM16.0001 11.3917L15.1341 10.8917L16.0001 11.3917ZM20.4633 11.6592L19.9633 12.5252L20.8294 13.0252L21.3294 12.1592L20.4633 11.6592ZM32.0252 5.63347C28.1988 3.42434 23.3061 4.73534 21.097 8.56168L22.829 9.56168C24.4859 6.69192 28.1554 5.70867 31.0252 7.36553L32.0252 5.63347ZM35.8669 14.1545C36.533 10.8773 35.0834 7.39913 32.0252 5.63347L31.0252 7.36553C33.3165 8.68842 34.407 11.2962 33.907 13.7561L35.8669 14.1545ZM31.7196 14.1419L34.6282 14.9212L35.1458 12.9894L32.2372 12.21L31.7196 14.1419ZM29.5247 9.96367C30.6273 10.6002 31.1748 11.8326 30.9902 13.0227L32.9666 13.3292C33.2735 11.3505 32.366 9.29468 30.5247 8.23162L29.5247 9.96367ZM25.4267 11.0617C26.2551 9.62687 28.0899 9.13524 29.5247 9.96367L30.5247 8.23162C28.1333 6.85091 25.0753 7.67028 23.6946 10.0617L25.4267 11.0617ZM23.9272 13.659L25.4267 11.0617L23.6946 10.0617L22.1951 12.659L23.9272 13.659ZM22.5611 14.025L33.8206 20.5257L34.8206 18.7936L23.5611 12.293L22.5611 14.025ZM33.8206 20.5257C34.2989 20.8018 34.4628 21.4134 34.1866 21.8917L35.9187 22.8917C36.7471 21.4568 36.2555 19.6221 34.8206 18.7936L33.8206 20.5257ZM34.1866 21.8917L26.1866 35.7481L27.9187 36.7481L35.9187 22.8917L34.1866 21.8917ZM26.1866 35.7481C25.9105 36.2264 25.2989 36.3903 24.8206 36.1141L23.8206 37.8462C25.2555 38.6746 27.0903 38.183 27.9187 36.7481L26.1866 35.7481ZM24.8206 36.1141L9.23215 27.1141L8.23215 28.8462L23.8206 37.8462L24.8206 36.1141ZM9.23215 27.1141C8.75386 26.838 8.58998 26.2264 8.86613 25.7481L7.13408 24.7481C6.30565 26.183 6.79727 28.0178 8.23215 28.8462L9.23215 27.1141ZM8.86613 25.7481L16.8661 11.8917L15.1341 10.8917L7.13408 24.7481L8.86613 25.7481ZM16.8661 11.8917C17.1423 11.4134 17.7539 11.2495 18.2322 11.5257L19.2322 9.79363C17.7973 8.9652 15.9625 9.45683 15.1341 10.8917L16.8661 11.8917ZM18.2322 11.5257L19.9633 12.5252L20.9633 10.7931L19.2322 9.79363L18.2322 11.5257ZM21.097 8.56168L19.5973 11.1592L21.3294 12.1592L22.829 9.56168L21.097 8.56168Z" fill="black" mask="url(#path-1-outside-1_392_1253)"/>
<path fill-rule="evenodd" clip-rule="evenodd" d="M16.5254 32.4797L24.3207 36.9803C25.2772 37.5326 26.5004 37.2048 27.0527 36.2482L35.0527 22.3918C35.605 21.4352 35.2772 20.2121 34.3207 19.6598L26.5254 15.1592L16.5254 32.4797Z" fill="#D9D9D9"/>
<path fill-rule="evenodd" clip-rule="evenodd" d="M24.5258 18.624C23.0909 17.7956 21.2562 18.2872 20.4277 19.7221C19.9836 20.4913 19.9189 21.3754 20.1754 22.1578L17.293 27.1504C16.7407 28.107 17.0684 29.3301 18.025 29.8824C18.9816 30.4347 20.2048 30.107 20.7571 29.1504L23.639 24.1588C24.4455 23.9901 25.1795 23.4918 25.6239 22.7221C26.4523 21.2872 25.9607 19.4525 24.5258 18.624Z" fill="#B8B8B8"/>
</g>
<defs>
<filter id="filter0_d_392_1253" x="0.731689" y="0.560547" width="41.5894" height="45.688" filterUnits="userSpaceOnUse" color-interpolation-filters="sRGB">
<feFlood flood-opacity="0" result="BackgroundImageFix"/>
<feColorMatrix in="SourceAlpha" type="matrix" values="0 0 0 0 0 0 0 0 0 0 0 0 0 0 0 0 0 0 127 0" result="hardAlpha"/>
<feMorphology radius="6" operator="dilate" in="SourceAlpha" result="effect1_dropShadow_392_1253"/>
<feOffset dy="2"/>
<feComposite in2="hardAlpha" operator="out"/>
<feColorMatrix type="matrix" values="0 0 0 0 0 0 0 0 0 0 0 0 0 0 0 0 0 0 1 0"/>
<feBlend mode="normal" in2="BackgroundImageFix" result="effect1_dropShadow_392_1253"/>
<feBlend mode="normal" in="SourceGraphic" in2="effect1_dropShadow_392_1253" result="shape"/>
</filter>
</defs>
</svg>
