<svg width="28" height="28" viewBox="0 0 28 28" fill="none" xmlns="http://www.w3.org/2000/svg">
<path d="M9.04167 4.08331V2.33331C9.04167 1.85498 8.645 1.45831 8.16667 1.45831C7.68833 1.45831 7.29167 1.85498 7.29167 2.33331V4.15331C7.58333 4.11831 7.85167 4.08331 8.16667 4.08331H9.04167Z" fill="#C07BFF"/>
<path d="M18.375 4.15331V2.33331C18.375 1.85498 17.9783 1.45831 17.5 1.45831C17.0217 1.45831 16.625 1.85498 16.625 2.33331V4.08331H17.5C17.815 4.08331 18.0833 4.11831 18.375 4.15331Z" fill="#C07BFF"/>
<path d="M24.8383 17.465C23.94 16.7533 22.8083 16.3333 21.5833 16.3333C20.3583 16.3333 19.2033 16.765 18.305 17.4883C17.0917 18.445 16.3333 19.9383 16.3333 21.5833C16.3333 22.5633 16.6133 23.5083 17.0917 24.2783C17.465 24.885 17.9433 25.4216 18.515 25.83C19.3783 26.46 20.4283 26.8333 21.5833 26.8333C22.9133 26.8333 24.115 26.3433 25.0367 25.5266C25.445 25.1883 25.795 24.7683 26.075 24.29C26.5533 23.5083 26.8333 22.5633 26.8333 21.5833C26.8333 19.915 26.0517 18.4216 24.8383 17.465ZM21.5833 24.08C21.5833 22.7033 20.4633 21.5833 19.0867 21.5833C20.4633 21.5833 21.5833 20.4633 21.5833 19.0866C21.5833 20.4633 22.7033 21.5833 24.08 21.5833C22.7033 21.5833 21.5833 22.7033 21.5833 24.08Z" fill="#C07BFF"/>
<path d="M18.375 4.15331V5.83331C18.375 6.31165 17.9783 6.70831 17.5 6.70831C17.0217 6.70831 16.625 6.31165 16.625 5.83331V4.08331H9.04167V5.83331C9.04167 6.31165 8.645 6.70831 8.16667 6.70831C7.68834 6.70831 7.29167 6.31165 7.29167 5.83331V4.15331C3.85 4.46831 2.33334 6.68498 2.33334 9.91665V19.8333C2.33334 23.3333 4.08334 25.6666 8.16667 25.6666H12.985C13.8717 25.6666 14.4667 24.675 14.245 23.8116C14.0817 23.1816 14 22.5283 14 21.875C14 19.4483 15.085 17.2083 16.9633 15.7266C18.3283 14.6183 20.0783 14 21.875 14H21.9217C22.6567 14 23.3333 13.4633 23.3333 12.7283V9.91665C23.3333 6.68498 21.8167 4.46831 18.375 4.15331ZM10.5 19.5416H8.16667C7.68834 19.5416 7.29167 19.145 7.29167 18.6666C7.29167 18.1883 7.68834 17.7916 8.16667 17.7916H10.5C10.9783 17.7916 11.375 18.1883 11.375 18.6666C11.375 19.145 10.9783 19.5416 10.5 19.5416ZM14 13.7083H8.16667C7.68834 13.7083 7.29167 13.3116 7.29167 12.8333C7.29167 12.355 7.68834 11.9583 8.16667 11.9583H14C14.4783 11.9583 14.875 12.355 14.875 12.8333C14.875 13.3116 14.4783 13.7083 14 13.7083Z" fill="#C07BFF"/>
</svg>
