<svg width="32" height="32" viewBox="0 0 32 32" fill="none" xmlns="http://www.w3.org/2000/svg">
<path d="M10.1333 16C12.9704 16 15.2666 13.6143 15.2666 10.6667C15.2666 7.71906 12.9704 5.33334 10.1333 5.33334C7.29623 5.33334 4.99998 7.71906 4.99998 10.6667C4.99998 13.6143 7.29623 16 10.1333 16ZM13.6533 17.5238H13.2729C12.3196 18 11.2608 18.2857 10.1333 18.2857C9.00581 18.2857 7.95165 18 6.99373 17.5238H6.61331C3.69831 17.5238 1.33331 19.981 1.33331 23.0095V24.381C1.33331 25.6429 2.31873 26.6667 3.53331 26.6667H16.7333C17.9479 26.6667 18.9333 25.6429 18.9333 24.381V23.0095C18.9333 19.981 16.5683 17.5238 13.6533 17.5238ZM23.3333 16C25.7625 16 27.7333 13.9524 27.7333 11.4286C27.7333 8.90477 25.7625 6.85715 23.3333 6.85715C20.9041 6.85715 18.9333 8.90477 18.9333 11.4286C18.9333 13.9524 20.9041 16 23.3333 16ZM25.5333 17.5238H25.3591C24.7221 17.7524 24.0483 17.9048 23.3333 17.9048C22.6183 17.9048 21.9446 17.7524 21.3075 17.5238H21.1333C20.1983 17.5238 19.3366 17.8048 18.5804 18.2572C19.6987 19.5095 20.4 21.1714 20.4 23.0095V24.8381C20.4 24.9429 20.3771 25.0429 20.3725 25.1429H28.4666C29.6812 25.1429 30.6666 24.1191 30.6666 22.8572C30.6666 19.9095 28.3704 17.5238 25.5333 17.5238Z" fill="#A9A7A7"/>
</svg>
