<svg width="33" height="32" viewBox="0 0 33 32" fill="none" xmlns="http://www.w3.org/2000/svg">
<path d="M5.31508 2.94025C4.72184 2.4871 3.88024 2.60955 3.43531 3.21376C2.99037 3.81797 3.1106 4.67513 3.70384 5.12829L5.99684 6.87983L9.67445 23.1108C9.95563 24.3518 11.0406 25.2309 12.2911 25.2309H23.9786C24.7201 25.2309 25.3213 24.6186 25.3213 23.8633C25.3213 23.1081 24.7201 22.4958 23.9786 22.4958L12.2911 22.4958L11.9426 20.9579L21.7613 20.1245C24.925 19.856 27.4716 17.3671 27.8654 14.1587L28.4789 9.15975C28.6792 7.52734 27.4295 6.08547 25.8142 6.08547H8.56648C8.4011 5.5305 8.06614 5.0417 7.60807 4.69179L5.31508 2.94025Z" fill="#C07BFF"/>
<path d="M13.9083 27.9658C13.9083 28.7211 13.3071 29.3333 12.5656 29.3333C11.824 29.3333 11.2229 28.7211 11.2229 27.9658C11.2229 27.2106 11.824 26.5983 12.5656 26.5983C13.3071 26.5983 13.9083 27.2106 13.9083 27.9658Z" fill="#C07BFF"/>
<path d="M21.9644 29.3333C22.706 29.3333 23.3071 28.7211 23.3071 27.9658C23.3071 27.2106 22.706 26.5983 21.9644 26.5983C21.2229 26.5983 20.6217 27.2106 20.6217 27.9658C20.6217 28.7211 21.2229 29.3333 21.9644 29.3333Z" fill="#C07BFF"/>
</svg>
